# xmcd
# Track frame offsets:
# 150
# 18720
# 38427
# 54982
# 70120
# 86977
# 100712
# 115860
# 129035
# 145187
#
# Disc length: 2182 seconds
# Revision: 0
# Processed by: cddbd v1.5.1PL0 Copyright (c) Steve Scherf et al.
# Submitted via: VisiTrax 2.9.10.220 - For more info visit www.synapsa.com
#
DISCID=7a08840a
DTITLE=Cledus T Judd - Bipolar and Proud
DYEAR=1900
DGENRE=
TTITLE0=I Love NASCAR
TTITLE1=Hell No
TTITLE2=One Jack Off
TTITLE3=Paycheck Woman
TTITLE4=Bake Me A Country Ham
TTITLE5=I'm Going Ugly Early Tonight
TTITLE6=___ Is Funny
TTITLE7=Starkissed
TTITLE8=Marty, Emily and Natalie
TTITLE9=Funny Man
EXTD=
EXTT0=
EXTT1=
EXTT2=
EXTT3=
EXTT4=
EXTT5=
EXTT6=
EXTT7=
EXTT8=
EXTT9=
PLAYORDER=
